<svg width="100" height="101" viewBox="0 0 100 101" fill="none" xmlns="http://www.w3.org/2000/svg">
<g clip-path="url(#clip0_39_146)">
<path d="M91.2338 17.4536L50.6088 0.266068C50.4161 0.184665 50.2091 0.142723 50 0.142723C49.7909 0.142723 49.5839 0.184665 49.3912 0.266068L8.76621 17.4536C8.48344 17.5733 8.24218 17.7736 8.07257 18.0295C7.90296 18.2855 7.8125 18.5858 7.8125 18.8928V43.5758C7.8125 69.2868 24.4781 92.3624 49.5404 100.074C49.8398 100.166 50.16 100.166 50.4594 100.074C75.0334 92.5126 92.1875 69.7977 92.1875 43.5756V18.8928C92.1875 18.5858 92.097 18.2855 91.9274 18.0295C91.7578 17.7736 91.5166 17.5733 91.2338 17.4536ZM89.0625 43.5756C89.0625 68.1485 73.3863 89.5342 50 96.9432C26.6137 89.5342 10.9375 68.1487 10.9375 43.5756V19.9282L50 3.40181L89.0625 19.9282V43.5756Z" fill="#121212"/>
<path d="M43.5597 61.538C45.3919 63.3701 48.3568 63.3699 50.1886 61.538L70.6353 41.0914C72.5366 39.1898 72.5366 36.0957 70.6353 34.1941C68.7337 32.2929 65.6396 32.2929 63.738 34.1941L46.8741 51.0582L39.3853 43.5691C37.4837 41.6679 34.3898 41.6679 32.4882 43.5691C30.5822 45.4749 30.582 48.5605 32.4882 50.4664L43.5597 61.538ZM34.6976 45.7791C35.3806 45.096 36.4923 45.0958 37.1755 45.7791L45.7693 54.3728C46.0623 54.6657 46.4597 54.8303 46.874 54.8303C47.2884 54.8303 47.6858 54.6657 47.9788 54.3728L65.9478 36.4041C66.1101 36.2408 66.3031 36.1115 66.5158 36.0234C66.7285 35.9353 66.9565 35.8903 67.1866 35.891C68.7437 35.891 69.522 37.7855 68.4255 38.8818L47.9788 59.3283C47.3697 59.9375 46.3784 59.9375 45.7693 59.3283L34.6976 48.2566C34.5348 48.094 34.4057 47.9009 34.3176 47.6883C34.2294 47.4758 34.1841 47.2479 34.1841 47.0178C34.1841 46.7877 34.2294 46.5599 34.3176 46.3473C34.4057 46.1348 34.5348 45.9417 34.6976 45.7791Z" fill="#FF7200"/>
<path d="M49.3588 9.65552L18.1088 23.718C17.8343 23.8415 17.6013 24.0416 17.4378 24.2944C17.2744 24.5472 17.1874 24.8418 17.1875 25.1428V45.159C17.1875 65.6254 30.1664 83.919 49.4838 90.6799C49.8402 90.8047 50.2297 90.7961 50.5803 90.6559L52.4953 89.8897C70.8154 82.5618 82.8125 64.8409 82.8125 45.1108V25.1428C82.8125 24.8418 82.7255 24.5472 82.5621 24.2945C82.3987 24.0417 82.1657 23.8415 81.8912 23.718L50.6412 9.65552C50.4396 9.56477 50.2211 9.51784 50 9.51784C49.7789 9.51784 49.5604 9.56477 49.3588 9.65552ZM79.6875 26.153V45.1106C79.6875 63.661 68.5586 80.0989 51.3348 86.9881L49.9686 87.5348C32.2055 81.0604 20.3125 64.1055 20.3125 45.159V26.153L50 12.7936L79.6875 26.153Z" fill="#121212"/>
</g>
<defs>
<clipPath id="clip0_39_146">
<rect width="100" height="100" fill="white" transform="translate(0 0.142822)"/>
</clipPath>
</defs>
</svg>
