<svg width="100" height="101" viewBox="0 0 100 101" fill="none" xmlns="http://www.w3.org/2000/svg">
<path d="M91.702 62.0819V26.6131C91.7048 25.6714 91.5209 24.7385 91.1608 23.8683C90.8008 22.9981 90.2717 22.208 89.6043 21.5436C89.1269 21.0684 88.5829 20.6653 87.9895 20.3467L89.1379 19.1983C90.0209 18.3132 90.5167 17.1141 90.5167 15.8639C90.5167 14.6137 90.0209 13.4146 89.1379 12.5295L86.3504 9.74204C85.4653 8.85907 84.2662 8.3632 83.016 8.3632C81.7658 8.3632 80.5667 8.85907 79.6816 9.74204L75.9223 13.5022L70.4809 18.9428V7.96938C70.4798 7.13744 70.149 6.33985 69.5609 5.75143C68.9727 5.16301 68.1753 4.83177 67.3434 4.83032H32.6559C31.8236 4.83136 31.0258 5.16241 30.4373 5.75087C29.8489 6.33934 29.5178 7.13717 29.5168 7.96938V19.4452H15.4543C13.5551 19.4483 11.7347 20.2046 10.3925 21.5483C9.05033 22.8919 8.29595 24.7132 8.29492 26.6124V66.7522C8.29616 68.6513 9.0506 70.4724 10.3927 71.816C11.7349 73.1597 13.5552 73.9161 15.4543 73.9194H41.3277L39.3746 84.3288H32.6059C30.1203 84.3317 27.7375 85.3203 25.9799 87.0778C24.2224 88.8354 23.2338 91.2182 23.2309 93.7038V93.8928C23.2309 94.3072 23.3955 94.7047 23.6885 94.9977C23.9815 95.2907 24.379 95.4553 24.7934 95.4553H75.2059C75.6203 95.4553 76.0177 95.2907 76.3107 94.9977C76.6037 94.7047 76.7684 94.3072 76.7684 93.8928V93.7038C76.7655 91.2182 75.7768 88.8354 74.0193 87.0778C72.2618 85.3203 69.8789 84.3317 67.3934 84.3288H60.6285L58.6715 73.9194H84.5434C86.4425 73.9161 88.2628 73.1597 89.6049 71.816C90.9471 70.4724 91.7015 68.6513 91.7027 66.7522V62.1155L91.702 62.0819ZM81.891 11.9506C82.1898 11.6531 82.5944 11.4861 83.016 11.4861C83.4377 11.4861 83.8422 11.6531 84.141 11.9506L86.9285 14.7381C87.226 15.037 87.393 15.4415 87.393 15.8631C87.393 16.2848 87.226 16.6893 86.9285 16.9881L84.2723 19.6444L79.2348 14.6077L81.891 11.9506ZM69.9996 23.8413L70.0402 23.8014L77.0309 16.8155L82.0676 21.8522L67.8121 36.1014L64.7652 39.1483L59.7285 34.1108L69.9996 23.8413ZM61.7309 40.5374L57.1465 41.7327L58.3418 37.1483L61.7309 40.5374ZM32.6559 7.95532L67.3543 7.96938V22.067L56.4129 33.01C56.3926 33.0311 56.3777 33.0561 56.3582 33.078C56.3182 33.1212 56.2809 33.1669 56.2465 33.2147C56.2176 33.2553 56.1934 33.2928 56.1684 33.3389C56.1419 33.3832 56.1179 33.4288 56.0965 33.4756C56.0738 33.5266 56.054 33.5787 56.0371 33.6319C56.0277 33.6608 56.0129 33.6874 56.0051 33.717L53.4504 43.5225C53.3815 43.7862 53.3828 44.0633 53.4541 44.3263C53.5254 44.5893 53.6642 44.8291 53.8568 45.0219C54.0495 45.2146 54.2891 45.3537 54.5521 45.4252C54.8151 45.4967 55.0921 45.4982 55.3559 45.4295L65.1559 42.8772C65.1871 42.8694 65.2137 42.8545 65.2441 42.8452C65.2972 42.828 65.3493 42.8082 65.4004 42.7858C65.4911 42.7421 65.5786 42.692 65.6621 42.6358C65.7082 42.6024 65.7523 42.5664 65.7941 42.528C65.8176 42.5077 65.8434 42.492 65.8652 42.4702L67.3496 40.9858L67.3434 52.9163L32.6449 52.9014L32.6559 7.95532ZM59.3332 87.4545H67.3934C68.8117 87.4564 70.1875 87.9398 71.2953 88.8256C72.403 89.7114 73.1772 90.9471 73.491 92.3303H26.5082C26.8218 90.9469 27.596 89.7111 28.7038 88.8251C29.8116 87.9392 31.1874 87.4556 32.6059 87.4538L59.3332 87.4545ZM42.5504 84.3295L44.5082 73.9202H55.491L57.4488 84.3295H42.5504ZM88.577 66.7514C88.5765 67.822 88.1516 68.8487 87.3953 69.6065C86.639 70.3642 85.6132 70.7911 84.5426 70.7936H15.4566C14.3861 70.7911 13.3602 70.3642 12.6039 69.6065C11.8476 68.8487 11.4227 67.822 11.4223 66.7514V63.678H88.577V66.7514ZM88.577 60.5522H11.4223V26.6124C11.4225 25.5417 11.8473 24.5149 12.6037 23.7571C13.36 22.9993 14.386 22.5724 15.4566 22.5702H29.5191V52.9014C29.52 53.7334 29.8506 54.531 30.4386 55.1196C31.0266 55.7082 31.8239 56.0396 32.6559 56.0413H67.3434C68.1757 56.0402 68.9737 55.7091 69.5621 55.1204C70.1506 54.5318 70.4816 53.7338 70.4824 52.9014V37.8545L85.3785 22.9553L85.6074 22.7256C86.4625 22.9532 87.2179 23.4582 87.7552 24.1613C88.2925 24.8644 88.5812 25.7259 88.5762 26.6108L88.577 60.5522Z" fill="#121212"/>
<path d="M38.9629 18.2029H61.0348C61.4492 18.2029 61.8466 18.0383 62.1396 17.7452C62.4326 17.4522 62.5973 17.0548 62.5973 16.6404C62.5973 16.226 62.4326 15.8286 62.1396 15.5355C61.8466 15.2425 61.4492 15.0779 61.0348 15.0779H38.9629C38.5485 15.0779 38.1511 15.2425 37.858 15.5355C37.565 15.8286 37.4004 16.226 37.4004 16.6404C37.4004 17.0548 37.565 17.4522 37.858 17.7452C38.1511 18.0383 38.5485 18.2029 38.9629 18.2029ZM38.9629 26.874H57.0934C57.5078 26.874 57.9052 26.7094 58.1982 26.4163C58.4912 26.1233 58.6559 25.7259 58.6559 25.3115C58.6559 24.8971 58.4912 24.4996 58.1982 24.2066C57.9052 23.9136 57.5078 23.749 57.0934 23.749H38.9629C38.5485 23.749 38.1511 23.9136 37.858 24.2066C37.565 24.4996 37.4004 24.8971 37.4004 25.3115C37.4004 25.7259 37.565 26.1233 37.858 26.4163C38.1511 26.7094 38.5485 26.874 38.9629 26.874ZM51.5754 33.2084H38.9629C38.5485 33.2084 38.1511 33.373 37.858 33.666C37.565 33.959 37.4004 34.3564 37.4004 34.7709C37.4004 35.1853 37.565 35.5827 37.858 35.8757C38.1511 36.1687 38.5485 36.3334 38.9629 36.3334H51.5754C51.9898 36.3334 52.3872 36.1687 52.6802 35.8757C52.9733 35.5827 53.1379 35.1853 53.1379 34.7709C53.1379 34.3564 52.9733 33.959 52.6802 33.666C52.3872 33.373 51.9898 33.2084 51.5754 33.2084ZM48.4223 42.6685H38.9629C38.5485 42.6685 38.1511 42.8331 37.858 43.1262C37.565 43.4192 37.4004 43.8166 37.4004 44.231C37.4004 44.6454 37.565 45.0428 37.858 45.3359C38.1511 45.6289 38.5485 45.7935 38.9629 45.7935H48.4223C48.8367 45.7935 49.2341 45.6289 49.5271 45.3359C49.8201 45.0428 49.9848 44.6454 49.9848 44.231C49.9848 43.8166 49.8201 43.4192 49.5271 43.1262C49.2341 42.8331 48.8367 42.6685 48.4223 42.6685Z" fill="#FF7200"/>
</svg>
