<svg width="100" height="101" viewBox="0 0 100 101" fill="none" xmlns="http://www.w3.org/2000/svg">
<path d="M59.8883 7.42972C59.6925 6.84128 59.3377 6.31845 58.8633 5.91902C58.3889 5.51959 57.8132 5.25912 57.2 5.16639L54.2917 4.72306L53.0517 2.08306C52.7799 1.5031 52.3486 1.01258 51.8081 0.668951C51.2677 0.325324 50.6405 0.142822 50 0.142822C49.3595 0.142822 48.7323 0.325324 48.1919 0.668951C47.6514 1.01258 47.2201 1.5031 46.9483 2.08306L45.7083 4.72306L42.8 5.16806C42.1872 5.26135 41.6119 5.52187 41.1376 5.92095C40.6633 6.32003 40.3082 6.84221 40.1114 7.43005C39.9147 8.01789 39.8839 8.64861 40.0224 9.25282C40.161 9.85703 40.4635 10.4113 40.8967 10.8547L43.105 13.1197L42.605 16.2247C42.5011 16.8498 42.5755 17.4916 42.8198 18.0763C43.0641 18.6611 43.4682 19.1651 43.986 19.5305C44.5037 19.896 45.1139 20.108 45.7467 20.1424C46.3795 20.1767 47.0091 20.032 47.5633 19.7247L50 18.3681L52.4417 19.7197C52.995 20.0276 53.6242 20.1726 54.2565 20.1381C54.8888 20.1036 55.4984 19.891 56.015 19.5247C57.075 18.7847 57.615 17.4997 57.4 16.2247L56.9 13.1197L59.1083 10.8547C59.9917 9.95139 60.2933 8.62639 59.8883 7.42972ZM53.9217 11.3931C53.7396 11.5797 53.604 11.8065 53.5255 12.0552C53.4471 12.3038 53.4281 12.5674 53.47 12.8247L54.055 16.8014L50.8067 15.0047C50.5597 14.8681 50.2822 14.7965 50 14.7965C49.7178 14.7965 49.4403 14.8681 49.1933 15.0047L45.8883 16.7614L46.53 12.8247C46.5719 12.5674 46.5529 12.3038 46.4745 12.0552C46.396 11.8065 46.2604 11.5797 46.0783 11.3931L43.3033 8.46306L47.09 7.88472C47.3608 7.84353 47.6174 7.7362 47.8368 7.57225C48.0563 7.40829 48.232 7.19276 48.3483 6.94472L50.015 3.47806L50.0267 3.49806L51.6433 6.94472C51.7597 7.19276 51.9353 7.40829 52.1548 7.57225C52.3743 7.7362 52.6308 7.84353 52.9017 7.88472L56.71 8.52639L53.9217 11.3931ZM36.5 10.1431C36.3148 9.58713 35.9799 9.09305 35.5321 8.71519C35.0842 8.33733 34.5408 8.09034 33.9617 8.00139L31.4617 7.61639L30.3933 5.32306C30.1377 4.77215 29.7299 4.3058 29.218 3.979C28.7061 3.65219 28.1115 3.47856 27.5042 3.47856C26.8968 3.47856 26.3022 3.65219 25.7903 3.979C25.2784 4.3058 24.8706 4.77215 24.615 5.32306L23.5467 7.61639L21.0467 8.00139C20.467 8.09284 19.9236 8.34167 19.4757 8.72076C19.0277 9.09985 18.6925 9.59464 18.5064 10.1512C18.3204 10.7077 18.2908 11.3047 18.4207 11.8769C18.5506 12.4492 18.8352 12.9748 19.2433 13.3964L21.16 15.3764L20.72 18.0947C20.6194 18.6871 20.6884 19.2958 20.9192 19.8506C21.15 20.4054 21.533 20.8835 22.0241 21.2297C22.5152 21.5759 23.0942 21.7761 23.6943 21.8071C24.2943 21.838 24.8909 21.6985 25.415 21.4047L27.5067 20.2381L29.5967 21.4047C30.1212 21.6955 30.7171 21.8326 31.3159 21.8003C31.9148 21.768 32.4925 21.5676 32.9827 21.2221C33.4729 20.8766 33.8559 20.4 34.0877 19.8469C34.3195 19.2938 34.3908 18.6865 34.2933 18.0947L33.8533 15.3764L35.77 13.3964C36.6033 12.5347 36.8867 11.2797 36.5 10.1431ZM30.87 13.6564C30.6896 13.8427 30.5551 14.0685 30.4772 14.3158C30.3994 14.5632 30.3804 14.8254 30.4217 15.0814L30.95 18.3447L28.31 16.8764C28.0623 16.7386 27.7835 16.6663 27.5 16.6663C27.2165 16.6663 26.9377 16.7386 26.69 16.8764L24.05 18.3447L24.5783 15.0814C24.6196 14.8254 24.6006 14.5632 24.5228 14.3158C24.4449 14.0685 24.3104 13.8427 24.13 13.6564L21.805 11.2547L24.93 10.7731C25.201 10.7317 25.4576 10.6241 25.6771 10.4599C25.8966 10.2956 26.0722 10.0797 26.1883 9.83139L27.455 6.91472L28.8117 9.83139C28.9278 10.0797 29.1034 10.2956 29.3229 10.4599C29.5424 10.6241 29.799 10.7317 30.07 10.7731L33.195 11.2547L30.87 13.6564ZM16.5 16.1931C16.3254 15.6676 16.0094 15.2004 15.5866 14.8428C15.1637 14.4853 14.6505 14.2512 14.1033 14.1664L11.9767 13.8331L11.07 11.8914C10.8282 11.3694 10.4422 10.9275 9.95744 10.6177C9.47268 10.308 8.90942 10.1435 8.33417 10.1435C7.75891 10.1435 7.19566 10.308 6.71089 10.6177C6.22613 10.9275 5.84009 11.3694 5.59833 11.8914L4.69 13.8414L2.56333 14.1747C2.01611 14.2623 1.50333 14.4981 1.08059 14.8565C0.657859 15.2148 0.341314 15.6821 0.165292 16.2076C-0.0107305 16.7331 -0.0395105 17.2967 0.0820735 17.8374C0.203657 18.3781 0.470964 18.8752 0.855 19.2747L2.5 20.9664L2.12333 23.2897C2.02904 23.85 2.0949 24.4256 2.31333 24.9501C2.53176 25.4746 2.89388 25.9268 3.358 26.2545C3.82212 26.5823 4.36936 26.7723 4.93673 26.8027C5.50409 26.8331 6.06851 26.7027 6.565 26.4264L8.33333 25.4414L10.1017 26.4264C10.5984 26.7018 11.1627 26.8317 11.7298 26.8011C12.2969 26.7705 12.844 26.5807 13.3082 26.2534C13.7724 25.9262 14.135 25.4747 14.3543 24.9508C14.5736 24.4269 14.6409 23.8518 14.5483 23.2914L14.1667 20.9664L15.8067 19.2747C16.5967 18.4581 16.865 17.2697 16.5 16.1931ZM11.1967 19.2481C11.0162 19.4343 10.8817 19.6601 10.8039 19.9075C10.7261 20.1549 10.707 20.417 10.7483 20.6731L11.1567 23.1981L9.145 22.0781C8.89685 21.9397 8.61745 21.8671 8.33333 21.8671C8.04922 21.8671 7.76981 21.9397 7.52167 22.0781L5.51 23.1981L5.91833 20.6731C5.95962 20.417 5.94059 20.1549 5.86276 19.9075C5.78493 19.6601 5.65044 19.4343 5.47 19.2481L3.65333 17.3714L6.07833 16.9981C6.34892 16.956 6.60498 16.848 6.82387 16.6834C7.04276 16.5189 7.21774 16.303 7.33333 16.0547L8.33333 13.9114L9.33333 16.0547C9.44908 16.3032 9.62432 16.5192 9.84352 16.6838C10.0627 16.8483 10.3191 16.9563 10.59 16.9981L13.015 17.3714L11.1967 19.2481ZM81.5 10.1431C81.3148 9.58713 80.9799 9.09305 80.5321 8.71519C80.0842 8.33733 79.5408 8.09034 78.9617 8.00139L76.4617 7.61639L75.3917 5.32139C75.1359 4.77094 74.7281 4.30506 74.2164 3.97859C73.7047 3.65213 73.1103 3.47868 72.5033 3.47868C71.8963 3.47868 71.302 3.65213 70.7903 3.97859C70.2786 4.30506 69.8708 4.77094 69.615 5.32139L68.5467 7.61472L66.0467 7.99972C65.467 8.09117 64.9236 8.34001 64.4757 8.7191C64.0277 9.09818 63.6925 9.59297 63.5065 10.1495C63.3204 10.7061 63.2908 11.303 63.4207 11.8753C63.5506 12.4475 63.8352 12.9731 64.2433 13.3947L66.16 15.3747L65.72 18.0931C65.6194 18.6854 65.6884 19.2942 65.9192 19.8489C66.15 20.4037 66.533 20.8818 67.0241 21.228C67.5152 21.5743 68.0942 21.7744 68.6943 21.8054C69.2943 21.8364 69.8909 21.6969 70.415 21.4031L72.5067 20.2364L74.5967 21.4031C75.1212 21.6938 75.7171 21.8309 76.3159 21.7986C76.9148 21.7663 77.4925 21.566 77.9827 21.2205C78.4729 20.875 78.8559 20.3983 79.0877 19.8452C79.3195 19.2921 79.3908 18.6848 79.2933 18.0931L78.8533 15.3747L80.77 13.3947C81.6033 12.5331 81.8867 11.2781 81.5 10.1431ZM75.87 13.6564C75.6896 13.8427 75.5551 14.0685 75.4772 14.3158C75.3994 14.5632 75.3804 14.8254 75.4217 15.0814L75.95 18.3447L73.31 16.8764C73.0623 16.7386 72.7835 16.6663 72.5 16.6663C72.2165 16.6663 71.9377 16.7386 71.69 16.8764L69.05 18.3447L69.5783 15.0814C69.6196 14.8254 69.6006 14.5632 69.5228 14.3158C69.4449 14.0685 69.3104 13.8427 69.13 13.6564L66.7967 11.2547L69.9217 10.7731C70.1927 10.7317 70.4493 10.6241 70.6688 10.4599C70.8883 10.2956 71.0639 10.0797 71.18 9.83139L72.5 7.01306L73.8117 9.83139C73.9278 10.0797 74.1034 10.2956 74.3229 10.4599C74.5424 10.6241 74.799 10.7317 75.07 10.7731L78.195 11.2547L75.87 13.6564ZM86.7017 26.2597C87.1644 26.5865 87.7102 26.7755 88.2759 26.805C88.8416 26.8345 89.4041 26.7033 89.8983 26.4264L91.6667 25.4414L93.435 26.4264C93.9317 26.7018 94.496 26.8317 95.0631 26.8011C95.6303 26.7705 96.1773 26.5807 96.6415 26.2534C97.1057 25.9262 97.4683 25.4747 97.6876 24.9508C97.907 24.4269 97.9742 23.8518 97.8817 23.2914L97.5 20.9664L99.14 19.2747C99.5264 18.8754 99.7957 18.3777 99.9186 17.8358C100.042 17.2939 100.013 16.7287 99.8372 16.2018C99.6609 15.6748 99.3434 15.2063 98.9193 14.8474C98.4951 14.4885 97.9805 14.253 97.4317 14.1664L95.305 13.8331L94.3983 11.8847C94.1563 11.3628 93.77 10.921 93.2852 10.6114C92.8003 10.3018 92.237 10.1373 91.6617 10.1373C91.0864 10.1373 90.5231 10.3018 90.0382 10.6114C89.5533 10.921 89.167 11.3628 88.925 11.8847L88.0183 13.8331L85.8917 14.1664C85.3428 14.253 84.8282 14.4885 84.4041 14.8474C83.9799 15.2063 83.6624 15.6748 83.4862 16.2018C83.31 16.7287 83.2818 17.2939 83.4047 17.8358C83.5276 18.3777 83.797 18.8754 84.1833 19.2747L85.8233 20.9664L85.4467 23.2897C85.255 24.4397 85.7433 25.5964 86.7017 26.2597ZM89.4117 16.9981C89.6825 16.9563 89.9389 16.8483 90.1581 16.6838C90.3773 16.5192 90.5526 16.3032 90.6683 16.0547L91.6667 13.9114L92.6667 16.0547C92.7824 16.3032 92.9576 16.5192 93.1768 16.6838C93.396 16.8483 93.6525 16.9563 93.9233 16.9981L96.3483 17.3714L94.5317 19.2481C94.3512 19.4343 94.2167 19.6601 94.1389 19.9075C94.0611 20.1549 94.042 20.417 94.0833 20.6731L94.4917 23.1981L92.48 22.0781C92.2318 21.9397 91.9524 21.8671 91.6683 21.8671C91.3842 21.8671 91.1048 21.9397 90.8567 22.0781L88.845 23.1981L89.2533 20.6731C89.2946 20.417 89.2756 20.1549 89.1978 19.9075C89.1199 19.6601 88.9854 19.4343 88.805 19.2481L86.9883 17.3714L89.4117 16.9981ZM3.33333 100.143H96.6667C97.5507 100.143 98.3986 99.7919 99.0237 99.1668C99.6488 98.5416 100 97.6938 100 96.8097V80.1431C100 79.259 99.6488 78.4112 99.0237 77.786C98.3986 77.1609 97.5507 76.8097 96.6667 76.8097H91.6667V35.1431C91.6667 33.817 91.1399 32.5452 90.2022 31.6075C89.2645 30.6698 87.9927 30.1431 86.6667 30.1431H68.3333V28.4764C68.3333 27.1503 67.8065 25.8785 66.8689 24.9409C65.9312 24.0032 64.6594 23.4764 63.3333 23.4764H36.6667C35.3406 23.4764 34.0688 24.0032 33.1311 24.9409C32.1935 25.8785 31.6667 27.1503 31.6667 28.4764V30.1431H13.3333C12.0073 30.1431 10.7355 30.6698 9.7978 31.6075C8.86012 32.5452 8.33333 33.817 8.33333 35.1431V76.8097H3.33333C2.44928 76.8097 1.60143 77.1609 0.976311 77.786C0.35119 78.4112 0 79.259 0 80.1431L0 96.8097C0 97.6938 0.35119 98.5416 0.976311 99.1668C1.60143 99.7919 2.44928 100.143 3.33333 100.143ZM13.3333 96.8097V88.4764H20V96.8097H13.3333ZM43.3333 86.8097H48.3333V96.8097H43.3333V86.8097ZM51.6667 96.8097V86.8097H56.6667V96.8097H51.6667ZM80 96.8097V88.4764H86.6667V96.8097H80ZM86.6667 33.4764C87.1087 33.4764 87.5326 33.652 87.8452 33.9645C88.1577 34.2771 88.3333 34.701 88.3333 35.1431V76.8097H68.3333V33.4764H86.6667ZM35 28.4764C35 28.0344 35.1756 27.6104 35.4882 27.2979C35.8007 26.9853 36.2246 26.8097 36.6667 26.8097H63.3333C63.7754 26.8097 64.1993 26.9853 64.5118 27.2979C64.8244 27.6104 65 28.0344 65 28.4764V76.8097H35V28.4764ZM11.6667 35.1431C11.6667 34.701 11.8423 34.2771 12.1548 33.9645C12.4674 33.652 12.8913 33.4764 13.3333 33.4764H31.6667V76.8097H11.6667V35.1431ZM3.33333 80.1431H96.6667V96.8097H90V88.4764C90.442 88.4764 90.866 88.3008 91.1785 87.9882C91.4911 87.6757 91.6667 87.2518 91.6667 86.8097C91.6667 86.3677 91.4911 85.9438 91.1785 85.6312C90.866 85.3187 90.442 85.1431 90 85.1431H76.6667C76.2246 85.1431 75.8007 85.3187 75.4882 85.6312C75.1756 85.9438 75 86.3677 75 86.8097C75 87.2518 75.1756 87.6757 75.4882 87.9882C75.8007 88.3008 76.2246 88.4764 76.6667 88.4764V96.8097H60V86.8097H61.6667C62.1087 86.8097 62.5326 86.6341 62.8452 86.3216C63.1577 86.009 63.3333 85.5851 63.3333 85.1431C63.3333 84.701 63.1577 84.2771 62.8452 83.9645C62.5326 83.652 62.1087 83.4764 61.6667 83.4764H38.3333C37.8913 83.4764 37.4674 83.652 37.1548 83.9645C36.8423 84.2771 36.6667 84.701 36.6667 85.1431C36.6667 85.5851 36.8423 86.009 37.1548 86.3216C37.4674 86.6341 37.8913 86.8097 38.3333 86.8097H40V96.8097H23.3333V88.4764C23.7754 88.4764 24.1993 88.3008 24.5118 87.9882C24.8244 87.6757 25 87.2518 25 86.8097C25 86.3677 24.8244 85.9438 24.5118 85.6312C24.1993 85.3187 23.7754 85.1431 23.3333 85.1431H10C9.55797 85.1431 9.13405 85.3187 8.82149 85.6312C8.50893 85.9438 8.33333 86.3677 8.33333 86.8097C8.33333 87.2518 8.50893 87.6757 8.82149 87.9882C9.13405 88.3008 9.55797 88.4764 10 88.4764V96.8097H3.33333V80.1431Z" fill="#121212"/>
<path d="M41.6667 41.8095H45C45.8841 41.8095 46.7319 41.4583 47.357 40.8332C47.9821 40.2081 48.3333 39.3602 48.3333 38.4762V35.1428C48.3333 34.2588 47.9821 33.4109 47.357 32.7858C46.7319 32.1607 45.8841 31.8095 45 31.8095H41.6667C40.7826 31.8095 39.9348 32.1607 39.3096 32.7858C38.6845 33.4109 38.3333 34.2588 38.3333 35.1428V38.4762C38.3333 39.3602 38.6845 40.2081 39.3096 40.8332C39.9348 41.4583 40.7826 41.8095 41.6667 41.8095ZM41.6667 35.1428H45V38.4762H41.6667V35.1428ZM55 41.8095H58.3333C59.2174 41.8095 60.0652 41.4583 60.6904 40.8332C61.3155 40.2081 61.6667 39.3602 61.6667 38.4762V35.1428C61.6667 34.2588 61.3155 33.4109 60.6904 32.7858C60.0652 32.1607 59.2174 31.8095 58.3333 31.8095H55C54.116 31.8095 53.2681 32.1607 52.643 32.7858C52.0179 33.4109 51.6667 34.2588 51.6667 35.1428V38.4762C51.6667 39.3602 52.0179 40.2081 52.643 40.8332C53.2681 41.4583 54.116 41.8095 55 41.8095ZM55 35.1428H58.3333V38.4762H55V35.1428ZM41.6667 56.8095H45C45.8841 56.8095 46.7319 56.4583 47.357 55.8332C47.9821 55.2081 48.3333 54.3602 48.3333 53.4762V50.1428C48.3333 49.2588 47.9821 48.4109 47.357 47.7858C46.7319 47.1607 45.8841 46.8095 45 46.8095H41.6667C40.7826 46.8095 39.9348 47.1607 39.3096 47.7858C38.6845 48.4109 38.3333 49.2588 38.3333 50.1428V53.4762C38.3333 54.3602 38.6845 55.2081 39.3096 55.8332C39.9348 56.4583 40.7826 56.8095 41.6667 56.8095ZM45 50.1428V53.4762H41.6667V50.1428H45ZM55 56.8095H58.3333C59.2174 56.8095 60.0652 56.4583 60.6904 55.8332C61.3155 55.2081 61.6667 54.3602 61.6667 53.4762V50.1428C61.6667 49.2588 61.3155 48.4109 60.6904 47.7858C60.0652 47.1607 59.2174 46.8095 58.3333 46.8095H55C54.116 46.8095 53.2681 47.1607 52.643 47.7858C52.0179 48.4109 51.6667 49.2588 51.6667 50.1428V53.4762C51.6667 54.3602 52.0179 55.2081 52.643 55.8332C53.2681 56.4583 54.116 56.8095 55 56.8095ZM58.3333 50.1428V53.4762H55V50.1428H58.3333ZM45 61.8095H41.6667C40.7826 61.8095 39.9348 62.1607 39.3096 62.7858C38.6845 63.4109 38.3333 64.2588 38.3333 65.1428V68.4762C38.3333 69.3602 38.6845 70.2081 39.3096 70.8332C39.9348 71.4583 40.7826 71.8095 41.6667 71.8095H45C45.8841 71.8095 46.7319 71.4583 47.357 70.8332C47.9821 70.2081 48.3333 69.3602 48.3333 68.4762V65.1428C48.3333 64.2588 47.9821 63.4109 47.357 62.7858C46.7319 62.1607 45.8841 61.8095 45 61.8095ZM41.6667 68.4762V65.1428H45V68.4762H41.6667ZM18.3333 46.8095H25C25.8841 46.8095 26.7319 46.4583 27.357 45.8332C27.9821 45.2081 28.3333 44.3602 28.3333 43.4762V40.1428C28.3333 39.2588 27.9821 38.4109 27.357 37.7858C26.7319 37.1607 25.8841 36.8095 25 36.8095H18.3333C17.4493 36.8095 16.6014 37.1607 15.9763 37.7858C15.3512 38.4109 15 39.2588 15 40.1428V43.4762C15 44.3602 15.3512 45.2081 15.9763 45.8332C16.6014 46.4583 17.4493 46.8095 18.3333 46.8095ZM18.3333 40.1428H25V43.4762H18.3333V40.1428ZM25 50.1428H18.3333C17.4493 50.1428 16.6014 50.494 15.9763 51.1191C15.3512 51.7443 15 52.5921 15 53.4762V56.8095C15 57.6935 15.3512 58.5414 15.9763 59.1665C16.6014 59.7916 17.4493 60.1428 18.3333 60.1428H25C25.8841 60.1428 26.7319 59.7916 27.357 59.1665C27.9821 58.5414 28.3333 57.6935 28.3333 56.8095V53.4762C28.3333 52.5921 27.9821 51.7443 27.357 51.1191C26.7319 50.494 25.8841 50.1428 25 50.1428ZM18.3333 56.8095V53.4762H25V56.8095H18.3333ZM25 63.4762H18.3333C17.4493 63.4762 16.6014 63.8273 15.9763 64.4525C15.3512 65.0776 15 65.9254 15 66.8095V70.1428C15 71.0269 15.3512 71.8747 15.9763 72.4998C16.6014 73.125 17.4493 73.4762 18.3333 73.4762H25C25.8841 73.4762 26.7319 73.125 27.357 72.4998C27.9821 71.8747 28.3333 71.0269 28.3333 70.1428V66.8095C28.3333 65.9254 27.9821 65.0776 27.357 64.4525C26.7319 63.8273 25.8841 63.4762 25 63.4762ZM18.3333 70.1428V66.8095H25V70.1428H18.3333ZM75 46.8095H81.6667C82.5507 46.8095 83.3986 46.4583 84.0237 45.8332C84.6488 45.2081 85 44.3602 85 43.4762V40.1428C85 39.2588 84.6488 38.4109 84.0237 37.7858C83.3986 37.1607 82.5507 36.8095 81.6667 36.8095H75C74.116 36.8095 73.2681 37.1607 72.643 37.7858C72.0179 38.4109 71.6667 39.2588 71.6667 40.1428V43.4762C71.6667 44.3602 72.0179 45.2081 72.643 45.8332C73.2681 46.4583 74.116 46.8095 75 46.8095ZM75 40.1428H81.6667V43.4762H75V40.1428ZM71.6667 53.4762V56.8095C71.6667 57.6935 72.0179 58.5414 72.643 59.1665C73.2681 59.7916 74.116 60.1428 75 60.1428H81.6667C82.5507 60.1428 83.3986 59.7916 84.0237 59.1665C84.6488 58.5414 85 57.6935 85 56.8095V53.4762C85 52.5921 84.6488 51.7443 84.0237 51.1191C83.3986 50.494 82.5507 50.1428 81.6667 50.1428H75C74.116 50.1428 73.2681 50.494 72.643 51.1191C72.0179 51.7443 71.6667 52.5921 71.6667 53.4762ZM81.6667 56.8095H75V53.4762H81.6667V56.8095ZM81.6667 63.4762H75C74.116 63.4762 73.2681 63.8273 72.643 64.4525C72.0179 65.0776 71.6667 65.9254 71.6667 66.8095V70.1428C71.6667 71.0269 72.0179 71.8747 72.643 72.4998C73.2681 73.125 74.116 73.4762 75 73.4762H81.6667C82.5507 73.4762 83.3986 73.125 84.0237 72.4998C84.6488 71.8747 85 71.0269 85 70.1428V66.8095C85 65.9254 84.6488 65.0776 84.0237 64.4525C83.3986 63.8273 82.5507 63.4762 81.6667 63.4762ZM81.6667 70.1428H75V66.8095H81.6667V70.1428ZM58.3333 61.8095H55C54.116 61.8095 53.2681 62.1607 52.643 62.7858C52.0179 63.4109 51.6667 64.2588 51.6667 65.1428V68.4762C51.6667 69.3602 52.0179 70.2081 52.643 70.8332C53.2681 71.4583 54.116 71.8095 55 71.8095H58.3333C59.2174 71.8095 60.0652 71.4583 60.6904 70.8332C61.3155 70.2081 61.6667 69.3602 61.6667 68.4762V65.1428C61.6667 64.2588 61.3155 63.4109 60.6904 62.7858C60.0652 62.1607 59.2174 61.8095 58.3333 61.8095ZM55 68.4762V65.1428H58.3333V68.4762H55Z" fill="#FF7200"/>
</svg>
