<svg width="18" height="21" viewBox="0 0 18 21" fill="none" xmlns="http://www.w3.org/2000/svg">
<path d="M14.657 14.6567L10.414 18.8997C10.2284 19.0854 10.0081 19.2328 9.76556 19.3333C9.52303 19.4339 9.26305 19.4856 9.0005 19.4856C8.73796 19.4856 8.47798 19.4339 8.23544 19.3333C7.99291 19.2328 7.77256 19.0854 7.587 18.8997L3.343 14.6567C2.22422 13.5379 1.46234 12.1124 1.15369 10.5606C0.845043 9.00873 1.00349 7.40022 1.60901 5.93844C2.21452 4.47665 3.2399 3.22725 4.55548 2.34821C5.87107 1.46918 7.41777 1 9 1C10.5822 1 12.1289 1.46918 13.4445 2.34821C14.7601 3.22725 15.7855 4.47665 16.391 5.93844C16.9965 7.40022 17.155 9.00873 16.8463 10.5606C16.5377 12.1124 15.7758 13.5379 14.657 14.6567V14.6567Z" stroke="#FF7200" stroke-width="2" stroke-linecap="round" stroke-linejoin="round"/>
<path d="M11.1213 11.1213C11.6839 10.5587 12 9.79565 12 9C12 8.20435 11.6839 7.44129 11.1213 6.87868C10.5587 6.31607 9.79565 6 9 6C8.20435 6 7.44129 6.31607 6.87868 6.87868C6.31607 7.44129 6 8.20435 6 9C6 9.79565 6.31607 10.5587 6.87868 11.1213C7.44129 11.6839 8.20435 12 9 12C9.79565 12 10.5587 11.6839 11.1213 11.1213Z" stroke="#FF7200" stroke-width="2" stroke-linecap="round" stroke-linejoin="round"/>
</svg>
