<svg width="27" height="26" viewBox="0 0 27 26" fill="none" xmlns="http://www.w3.org/2000/svg">
<path d="M14.1668 0.833335C14.4724 1.13889 14.6324 1.52778 14.6468 2C14.6613 2.47222 14.5152 2.86111 14.2085 3.16667L6.04183 11.3333L24.6668 11.3333C25.139 11.3333 25.5352 11.4933 25.8552 11.8133C26.1752 12.1333 26.3346 12.5289 26.3335 13C26.3335 13.4722 26.1735 13.8683 25.8535 14.1883C25.5335 14.5083 25.1379 14.6678 24.6668 14.6667L6.04183 14.6667L14.2085 22.8333C14.514 23.1389 14.6602 23.5278 14.6468 24C14.6335 24.4722 14.4735 24.8611 14.1668 25.1667C13.8613 25.4722 13.4724 25.625 13.0002 25.625C12.5279 25.625 12.139 25.4722 11.8335 25.1667L0.833493 14.1667C0.666825 14.0278 0.54849 13.8539 0.47849 13.645C0.40849 13.4361 0.374046 13.2211 0.375158 13C0.375158 12.7778 0.409602 12.5694 0.47849 12.375C0.54738 12.1806 0.665715 12 0.833493 11.8333L11.8335 0.833335C12.139 0.527779 12.5279 0.374999 13.0002 0.374999C13.4724 0.374999 13.8613 0.527779 14.1668 0.833335Z" fill="#E0E2E7"/>
</svg>
