<?xml version="1.0" encoding="utf-8"?><svg viewBox="0 0 20 21" xmlns="http://www.w3.org/2000/svg" xmlns:xlink="http://www.w3.org/1999/xlink"><style>:root>svg{display:none}:root>svg:target{display:block}</style><svg viewBox="0 0 18 21" id="adress" xmlns="http://www.w3.org/2000/svg"><path d="M14.657 14.657 10.414 18.9a1.998 1.998 0 0 1-2.827 0l-4.244-4.243a8 8 0 1 1 11.314 0Z"/><path d="M11.121 11.121A3 3 0 1 0 6.88 6.88a3 3 0 0 0 4.242 4.242Z"/></svg><svg viewBox="0 0 20 19" id="star" xmlns="http://www.w3.org/2000/svg"><path d="m3.825 18.31 1.625-6.44L0 7.539l7.2-.573L10 .893l2.8 6.073 7.2.573-5.45 4.33 1.625 6.44L10 14.896 3.825 18.31Z"/></svg><svg viewBox="0 0 18 18" id="tel" xmlns="http://www.w3.org/2000/svg"><path d="M1.988 1.988A1.667 1.667 0 0 0 1.5 3.167V4c0 6.903 5.597 12.5 12.5 12.5h.833a1.666 1.666 0 0 0 1.667-1.667v-2.732a.834.834 0 0 0-.57-.791l-3.744-1.248a.833.833 0 0 0-1.008.418l-.942 1.88a9.201 9.201 0 0 1-4.597-4.596l1.881-.942a.833.833 0 0 0 .418-1.008L6.69 2.07a.833.833 0 0 0-.79-.57H3.167a1.67 1.67 0 0 0-1.179.488Z"/></svg><svg viewBox="0 0 20 21" id="time" xmlns="http://www.w3.org/2000/svg"><path d="M10 6.143v4l3 3m6-3a9 9 0 1 1-18 0 9 9 0 0 1 18 0Z"/></svg></svg>