<svg width="20" height="21" viewBox="0 0 20 21" fill="none" xmlns="http://www.w3.org/2000/svg">
<path d="M10 6.14282V10.1428L13 13.1428M19 10.1428C19 11.3247 18.7672 12.495 18.3149 13.587C17.8626 14.6789 17.1997 15.6711 16.364 16.5068C15.5282 17.3425 14.5361 18.0054 13.4442 18.4577C12.3522 18.91 11.1819 19.1428 10 19.1428C8.8181 19.1428 7.64778 18.91 6.55585 18.4577C5.46392 18.0054 4.47177 17.3425 3.63604 16.5068C2.80031 15.6711 2.13738 14.6789 1.68508 13.587C1.23279 12.495 1 11.3247 1 10.1428C1 7.75587 1.94821 5.46669 3.63604 3.77886C5.32387 2.09103 7.61305 1.14282 10 1.14282C12.3869 1.14282 14.6761 2.09103 16.364 3.77886C18.0518 5.46669 19 7.75587 19 10.1428Z" stroke="#FF7200" stroke-width="2" stroke-linecap="round" stroke-linejoin="round"/>
</svg>
