<svg width="100" height="100" viewBox="0 0 100 100" fill="none" xmlns="http://www.w3.org/2000/svg">
<g clip-path="url(#clip0_39_90)">
<path d="M95.4406 62.4358L98.3018 59.5755C100.102 57.7743 100.102 54.8439 98.3018 53.0425C97.4287 52.1704 96.2691 51.6898 95.0348 51.6898C94.1086 51.6898 93.2236 51.9607 92.4713 52.4651L91.8686 50.4417L94.9654 47.344C96.7666 45.5429 96.7666 42.6124 94.9654 40.8118C93.3074 39.1532 90.6938 39.0259 88.8832 40.4212L85.2135 28.1013C86.6237 26.7452 88.0213 25.3759 89.4059 23.9937C93.2184 20.1804 96.318 16.1452 98.1346 12.6296C101.204 6.6878 99.9192 3.51163 98.301 1.89346C96.6836 0.275297 93.5074 -1.00888 87.5649 2.06065C84.05 3.87647 80.0141 6.97627 76.2016 10.7894C74.8192 12.1735 73.45 13.5708 72.0942 14.981L59.7733 11.3112C61.1688 9.50147 61.0412 6.8878 59.3834 5.2292C57.582 3.42842 54.6516 3.42784 52.8512 5.2292L49.7535 8.32666L47.7295 7.72393C48.2338 6.97081 48.5047 6.08584 48.5047 5.15967C48.5063 4.55286 48.3876 3.95174 48.1554 3.3911C47.9232 2.83046 47.5822 2.32143 47.152 1.89346C45.3514 0.0922891 42.4201 0.0922891 40.6197 1.89346L37.7594 4.75381L23.1805 0.411039C22.9258 0.335185 22.6553 0.329608 22.3977 0.3949C22.14 0.460192 21.9048 0.593923 21.717 0.781938L17.9643 4.53487C17.334 5.16416 17.4172 6.24073 18.1358 6.76651L54.9201 33.6913C46.6264 43.0427 38.6369 52.4054 32.9963 59.0948L22.1764 54.9331C21.9102 54.8307 21.6201 54.8077 21.3411 54.8669C21.0622 54.9261 20.8064 55.0649 20.6047 55.2665L16.1568 59.7144C15.8806 59.9909 15.7255 60.3657 15.7255 60.7565C15.7255 61.1474 15.8806 61.5222 16.1568 61.7987L38.3957 84.0376C38.9633 84.606 39.9125 84.606 40.4809 84.0376L44.9281 79.5903C45.1299 79.3886 45.2687 79.1327 45.3279 78.8536C45.387 78.5745 45.3639 78.2843 45.2613 78.0181L41.1004 67.1989C47.7899 61.5583 57.1518 53.5689 66.5039 45.2743L69.4258 49.2675C69.9447 49.9763 70.9969 50.0679 71.6332 49.4636C72.1635 48.9601 72.2367 48.1155 71.8057 47.5265L68.7164 43.3058C73.607 38.9411 78.4363 34.5374 82.818 30.3878L96.7072 77.0148L94.7914 78.9298L75.702 52.8495C75.4711 52.5341 75.1244 52.3232 74.738 52.2634C74.3517 52.2036 73.9575 52.2997 73.642 52.5306C73.4857 52.6449 73.3534 52.7888 73.2528 52.9543C73.1521 53.1197 73.0851 53.3034 73.0555 53.4947C73.0259 53.6861 73.0342 53.8814 73.0802 54.0696C73.1261 54.2577 73.2086 54.4349 73.3231 54.5911L93.4287 82.0595C93.9545 82.7782 95.0311 82.8612 95.6604 82.231L99.4133 78.4782C99.6013 78.2904 99.7349 78.0552 99.8002 77.7976C99.8655 77.5399 99.86 77.2695 99.7842 77.0148L95.4406 62.4358ZM54.9361 7.31416C55.5801 6.67022 56.6551 6.67022 57.299 7.31416C57.9506 7.96573 57.9506 9.02549 57.299 9.67706L56.6078 10.3683L52.9662 9.2833L54.9361 7.31416ZM42.7047 3.97862C43.3555 3.32705 44.416 3.32705 45.0676 3.97862C45.7192 4.63018 45.7192 5.68995 45.0676 6.34151L44.6129 6.79541L40.9723 5.71143L42.7047 3.97862ZM21.2647 5.40303L23.1805 3.48799L69.8074 17.3767C65.6578 21.7589 61.2541 26.5884 56.8887 31.4788L21.2647 5.40303ZM22.0123 58.029L30.9883 61.4814C29.317 63.4708 27.6515 65.4652 25.9918 67.4644L19.284 60.7565L22.0123 58.029ZM28.0861 69.5587C33.2252 63.3583 60.3897 30.7708 78.2867 12.8737C81.8375 9.32217 85.7133 6.33604 88.9184 4.68038C91.3246 3.43702 94.5442 2.30635 96.2166 3.97862C97.8891 5.65088 96.7576 8.87061 95.5147 11.2769C93.8592 14.4819 90.8721 18.3569 87.3207 21.9085C69.4252 39.804 36.8369 66.969 30.6365 72.1091L28.0861 69.5587ZM42.1662 78.1829L39.4387 80.9105L32.7309 74.2026C33.9576 73.1849 36.0328 71.4585 38.7139 69.2069L42.1662 78.1829ZM93.8537 55.1276C94.5053 54.4761 95.565 54.4761 96.2166 55.1276C96.8682 55.7792 96.8682 56.839 96.2166 57.4905L94.484 59.223L93.399 55.5823L93.8537 55.1276ZM90.5182 42.8962C91.169 42.2446 92.2295 42.2454 92.8811 42.8962C93.525 43.5401 93.525 44.6149 92.8811 45.2591L90.9111 47.229L89.8262 43.5874L90.5182 42.8962ZM88.4926 85.0982L75.9125 97.6782C75.3762 98.2153 75.3402 99.1021 75.834 99.6786C76.3856 100.323 77.3979 100.363 77.9977 99.7634L90.5777 87.1833C90.7147 87.0464 90.8234 86.8839 90.8975 86.705C90.9716 86.5261 91.0098 86.3344 91.0098 86.1407C91.0098 85.9471 90.9716 85.7553 90.8975 85.5765C90.8234 85.3976 90.7147 85.235 90.5777 85.0982C90.0024 84.523 89.0686 84.523 88.4926 85.0982Z" fill="black" stroke="black"/>
<path d="M84.2871 80.8929C84.4241 80.7561 84.5327 80.5936 84.6069 80.4148C84.681 80.2359 84.7192 80.0443 84.7192 79.8507C84.7192 79.6571 84.681 79.4654 84.6069 79.2866C84.5327 79.1078 84.4241 78.9453 84.2871 78.8085C84.1503 78.6716 83.9879 78.5629 83.8091 78.4888C83.6303 78.4147 83.4386 78.3765 83.245 78.3765C83.0515 78.3765 82.8598 78.4147 82.681 78.4888C82.5022 78.5629 82.3397 78.6716 82.2029 78.8085L74.34 86.6706C73.8037 87.2077 73.7678 88.0942 74.2615 88.671C74.8131 89.3149 75.8256 89.3554 76.4252 88.7558L84.2871 80.8929ZM79.5699 73.0308C79.7069 72.8939 79.8155 72.7313 79.8897 72.5524C79.9638 72.3736 80.002 72.1818 80.002 71.9882C80.002 71.7945 79.9638 71.6028 79.8897 71.4239C79.8155 71.245 79.7069 71.0825 79.5699 70.9456C79.4331 70.8087 79.2705 70.7 79.0917 70.6259C78.9128 70.5518 78.7211 70.5137 78.5275 70.5137C78.3338 70.5137 78.1421 70.5518 77.9632 70.6259C77.7844 70.7 77.6219 70.8087 77.485 70.9456L71.9811 76.4495C71.4447 76.9858 71.4088 77.8731 71.9033 78.4499C72.4541 79.0938 73.4664 79.1343 74.0662 78.5347L79.5699 73.0308ZM15.0971 10.4034C14.5209 9.82802 13.5873 9.82802 13.0119 10.4034L0.431849 22.9843C0.294888 23.1211 0.186236 23.2835 0.112105 23.4624C0.0379734 23.6412 -0.000183105 23.8329 -0.000183105 24.0265C-0.000183105 24.22 0.0379734 24.4117 0.112105 24.5905C0.186236 24.7694 0.294888 24.9318 0.431849 25.0686C0.999427 25.6362 1.94865 25.6362 2.517 25.0686L15.0971 12.4886C15.3734 12.2119 15.5285 11.8369 15.5285 11.446C15.5285 11.055 15.3734 10.68 15.0971 10.4034ZM21.3867 16.6938C21.2499 16.5569 21.0875 16.4482 20.9086 16.3741C20.7298 16.3 20.5381 16.2618 20.3445 16.2618C20.151 16.2618 19.9593 16.3 19.7804 16.3741C19.6016 16.4482 19.4392 16.5569 19.3024 16.6938L11.4395 24.5565C10.9024 25.0931 10.8672 25.9796 11.361 26.5563C11.9125 27.2003 12.9242 27.2407 13.5238 26.6409L21.3867 18.7788C21.5237 18.6419 21.6323 18.4794 21.7064 18.3005C21.7805 18.1217 21.8187 17.9299 21.8187 17.7363C21.8187 17.5427 21.7805 17.351 21.7064 17.1721C21.6323 16.9932 21.5237 16.8307 21.3867 16.6938ZM21.6606 28.9999C22.2289 29.5677 23.1774 29.5677 23.7457 28.9999L29.2496 23.496C29.5258 23.2194 29.681 22.8444 29.681 22.4535C29.681 22.0626 29.5258 21.6876 29.2496 21.411C28.973 21.1347 28.598 20.9796 28.207 20.9796C27.8161 20.9796 27.4411 21.1347 27.1645 21.411L21.6606 26.9149C21.3843 27.1916 21.2292 27.5665 21.2292 27.9574C21.2292 28.3483 21.3843 28.7233 21.6606 28.9999Z" fill="#FF7200" stroke="#FF7200"/>
</g>
<defs>
<clipPath id="clip0_39_90">
<rect width="100" height="100" fill="white"/>
</clipPath>
</defs>
</svg>
