<svg width="100" height="100" viewBox="0 0 100 100" fill="none" xmlns="http://www.w3.org/2000/svg">
<g clip-path="url(#clip0_39_97)">
<path d="M73.003 8.03925H27.1424C26.0422 8.03925 25.1504 8.93108 25.1504 10.0313V17.197C25.1504 18.2972 26.0422 19.189 27.1424 19.189H73.003C74.103 19.189 74.995 18.2972 74.995 17.197V10.0313C74.995 8.93108 74.103 8.03925 73.003 8.03925ZM71.011 15.205H29.1345V12.0233H71.011V15.205ZM17.8271 33.0426H46.4898C47.59 33.0426 48.4819 32.1508 48.4819 31.0506C48.4819 29.9504 47.59 29.0586 46.4898 29.0586H17.8271C16.7269 29.0586 15.8351 29.9504 15.8351 31.0506C15.8351 32.1508 16.7269 33.0426 17.8271 33.0426ZM54.6107 33.0426H58.1936C59.2936 33.0426 60.1856 32.1508 60.1856 31.0506C60.1856 29.9504 59.2936 29.0586 58.1936 29.0586H54.6107C53.5107 29.0586 52.6187 29.9504 52.6187 31.0506C52.6187 32.1508 53.5107 33.0426 54.6107 33.0426ZM23.495 77.0679C26.9651 77.0679 29.7884 74.2448 29.7884 70.7747C29.7884 67.3046 26.9653 64.4813 23.495 64.4813C20.0247 64.4813 17.2016 67.3044 17.2016 70.7747C17.2016 74.2448 20.0247 77.0679 23.495 77.0679ZM23.495 68.4654C24.7683 68.4654 25.8044 69.5014 25.8044 70.7747C25.8044 72.048 24.7683 73.0839 23.495 73.0839C22.2217 73.0839 21.1857 72.048 21.1857 70.7747C21.1857 69.5014 22.2217 68.4654 23.495 68.4654ZM76.505 77.0679C79.9751 77.0679 82.7984 74.2448 82.7984 70.7747C82.7984 67.3046 79.9751 64.4813 76.505 64.4813C73.0349 64.4813 70.2118 67.3044 70.2118 70.7747C70.2118 74.2448 73.0349 77.0679 76.505 77.0679ZM76.505 68.4654C77.7785 68.4654 78.8143 69.5014 78.8143 70.7747C78.8143 72.048 77.7785 73.0839 76.505 73.0839C75.2317 73.0839 74.1958 72.048 74.1958 70.7747C74.1958 69.5014 75.2317 68.4654 76.505 68.4654Z" fill="#FF7200"/>
<path d="M98.008 37.2779H91.9536V11.6187C91.9536 6.13409 87.4916 1.67194 82.0068 1.67194H17.9932C12.5086 1.67194 8.04642 6.13409 8.04642 11.6187V37.2779H1.99203C0.891833 37.2779 0 38.1697 0 39.2699V57.2729C0 58.3731 0.891833 59.265 1.99203 59.265H8.04642V83.8377C8.04642 84.9379 8.93825 85.8297 10.0384 85.8297H11.5825V91.6785C11.5825 95.3452 14.5655 98.3281 18.2323 98.3281H19.4265C23.0932 98.3281 26.0763 95.345 26.0763 91.6785V85.8297H73.9239V91.6785C73.9239 95.3452 76.907 98.3281 80.5737 98.3281H81.7679C85.4347 98.3281 88.4177 95.345 88.4177 91.6785V85.8297H89.9618C91.0618 85.8297 91.9538 84.9379 91.9538 83.8377V59.265H98.008C99.108 59.265 100 58.3731 100 57.2729V39.2699C100 38.1697 99.108 37.2779 98.008 37.2779ZM8.00139 55.2809H3.98406V41.262H8.00139V55.2809ZM22.092 91.6787C22.092 93.1484 20.8962 94.3442 19.4263 94.3442H18.2321C16.7622 94.3442 15.5663 93.1484 15.5663 91.6787V85.8299H22.092V91.6787ZM84.4335 91.6787C84.4335 93.1484 83.2376 94.3442 81.7677 94.3442H80.5735C79.1036 94.3442 77.9078 93.1484 77.9078 91.6787V85.8299H84.4335V91.6787ZM87.9697 81.8458H12.0305V59.317H87.9697V81.8458ZM87.9697 55.3329H79.2008C79.0938 55.2749 78.9817 55.2269 78.8659 55.1893L53.5474 47.068C52.4994 46.7317 51.3779 47.3088 51.042 48.3564C50.7062 49.404 51.2829 50.5257 52.3305 50.8616L66.2701 55.3327H45.9998L20.3462 47.068C20.0971 46.988 19.8347 46.9579 19.574 46.9794C19.3133 47.0008 19.0593 47.0735 18.8267 47.1931C18.594 47.3128 18.3872 47.4771 18.2181 47.6767C18.049 47.8763 17.9209 48.1073 17.841 48.3564C17.505 49.404 18.0819 50.5257 19.1295 50.8616L33.0691 55.3327H12.0305V25.6381H87.9697V55.3329ZM87.9697 21.654H12.0305V11.6187C12.0305 8.3309 14.7054 5.656 17.9932 5.656H82.007C85.2948 5.656 87.9697 8.3309 87.9697 11.6187V21.654ZM96.0159 55.2809H91.9986V41.262H96.0159V55.2809Z" fill="black"/>
</g>
<defs>
<clipPath id="clip0_39_97">
<rect width="100" height="100" fill="white"/>
</clipPath>
</defs>
</svg>
