<svg width="100" height="100" viewBox="0 0 100 100" fill="none" xmlns="http://www.w3.org/2000/svg">
<path d="M37.5 7.8125C36.5729 7.8125 35.6666 8.08742 34.8958 8.60249C34.1249 9.11756 33.5241 9.84964 33.1693 10.7062C32.8145 11.5627 32.7217 12.5052 32.9026 13.4145C33.0834 14.3238 33.5299 15.159 34.1854 15.8146C34.841 16.4701 35.6762 16.9166 36.5855 17.0974C37.4948 17.2783 38.4373 17.1855 39.2938 16.8307C40.1504 16.4759 40.8824 15.8751 41.3975 15.1042C41.9126 14.3334 42.1875 13.4271 42.1875 12.5C42.1875 11.2568 41.6936 10.0645 40.8146 9.18544C39.9355 8.30636 38.7432 7.8125 37.5 7.8125ZM37.5 14.0625C37.191 14.0625 36.8889 13.9709 36.6319 13.7992C36.375 13.6275 36.1747 13.3835 36.0564 13.0979C35.9382 12.8124 35.9072 12.4983 35.9675 12.1952C36.0278 11.8921 36.1766 11.6137 36.3951 11.3951C36.6137 11.1766 36.8921 11.0278 37.1952 10.9675C37.4983 10.9072 37.8124 10.9382 38.0979 11.0564C38.3835 11.1747 38.6275 11.375 38.7992 11.6319C38.9709 11.8889 39.0625 12.191 39.0625 12.5C39.0625 12.9144 38.8979 13.3118 38.6049 13.6049C38.3118 13.8979 37.9144 14.0625 37.5 14.0625ZM17.1875 51.5625H23.4375V54.6875H17.1875V51.5625ZM26.5625 51.5625H50V54.6875H26.5625V51.5625ZM17.1875 60.9375H23.4375V64.0625H17.1875V60.9375ZM17.1875 70.3125H23.4375V73.4375H17.1875V70.3125ZM17.1875 79.6875H23.4375V82.8125H17.1875V79.6875Z" fill="black"/>
<path d="M95.3125 54.6875H93.75C88.6809 54.6749 83.7504 53.0314 79.6875 50L75.9375 47.1875C75.6681 46.9822 75.3387 46.8711 75 46.8711C74.6613 46.8711 74.3319 46.9822 74.0625 47.1875L71.875 48.8281V17.1875C71.8713 15.9455 71.3762 14.7553 70.498 13.8771C69.6197 12.9988 68.4296 12.5037 67.1875 12.5H54.4062C54.0819 11.5895 53.4849 10.801 52.6965 10.2418C51.9081 9.68266 50.9666 9.38 50 9.37502H46.3438C45.6996 7.5438 44.5028 5.95771 42.9187 4.8357C41.3346 3.71368 39.4412 3.11108 37.5 3.11108C35.5588 3.11108 33.6654 3.71368 32.0813 4.8357C30.4972 5.95771 29.3004 7.5438 28.6562 9.37502H25C24.0334 9.38 23.0919 9.68266 22.3035 10.2418C21.5151 10.801 20.9181 11.5895 20.5938 12.5H7.8125C6.57044 12.5037 5.38031 12.9988 4.50203 13.8771C3.62376 14.7553 3.12871 15.9455 3.125 17.1875V92.1875C3.12871 93.4296 3.62376 94.6197 4.50203 95.498C5.38031 96.3763 6.57044 96.8713 7.8125 96.875H67.1875C67.8952 96.8704 68.5928 96.7065 69.2284 96.3955C69.8641 96.0844 70.4215 95.6341 70.8594 95.0781L74.3281 96.7188C74.5372 96.8215 74.767 96.8749 75 96.8749C75.233 96.8749 75.4628 96.8215 75.6719 96.7188L89.3906 90.2031C91.6533 89.0132 93.547 87.2265 94.8664 85.0367C96.1857 82.847 96.8804 80.3378 96.875 77.7813V56.25C96.875 55.8356 96.7104 55.4382 96.4174 55.1452C96.1243 54.8521 95.7269 54.6875 95.3125 54.6875ZM54.6875 15.625H67.1875C67.6019 15.625 67.9993 15.7896 68.2924 16.0827C68.5854 16.3757 68.75 16.7731 68.75 17.1875V51.0781C67.7504 51.7016 66.7058 52.25 65.625 52.7188V20.3125C65.625 19.8981 65.4604 19.5007 65.1674 19.2077C64.8743 18.9146 64.4769 18.75 64.0625 18.75H54.6875V15.625ZM23.4375 14.0625C23.4375 13.6481 23.6021 13.2507 23.8951 12.9577C24.1882 12.6646 24.5856 12.5 25 12.5H29.8438C30.2049 12.5037 30.5559 12.3806 30.8357 12.1522C31.1154 11.9238 31.3063 11.6046 31.375 11.25C31.6619 9.83716 32.4284 8.56693 33.5447 7.65455C34.6609 6.74217 36.0583 6.24376 37.5 6.24376C38.9417 6.24376 40.3391 6.74217 41.4553 7.65455C42.5716 8.56693 43.3381 9.83716 43.625 11.25C43.6937 11.6046 43.8846 11.9238 44.1643 12.1522C44.4441 12.3806 44.7951 12.5037 45.1562 12.5H50C50.4144 12.5 50.8118 12.6646 51.1049 12.9577C51.3979 13.2507 51.5625 13.6481 51.5625 14.0625V20.3125H23.4375V14.0625ZM21.875 23.4375H53.125C53.5394 23.4375 53.9368 23.2729 54.2299 22.9799C54.5229 22.6868 54.6875 22.2894 54.6875 21.875H62.5V53.8125C60.4655 54.3841 58.3632 54.6784 56.25 54.6875H54.6875C54.2731 54.6875 53.8757 54.8521 53.5826 55.1452C53.2896 55.4382 53.125 55.8356 53.125 56.25V60.9375H26.5625V64.0625H53.125V70.3125H26.5625V73.4375H53.125V77.7813C53.1272 78.4187 53.169 79.0553 53.25 79.6875H26.5625V82.8125H54.0781C54.7522 84.5575 55.7667 86.1509 57.0625 87.5H12.5V21.875H20.3125C20.3125 22.2894 20.4771 22.6868 20.7701 22.9799C21.0632 23.2729 21.4606 23.4375 21.875 23.4375ZM67.1875 93.75H7.8125C7.3981 93.75 7.00067 93.5854 6.70765 93.2924C6.41462 92.9994 6.25 92.6019 6.25 92.1875V17.1875C6.25 16.7731 6.41462 16.3757 6.70765 16.0827C7.00067 15.7896 7.3981 15.625 7.8125 15.625H20.3125V18.75H10.9375C10.5231 18.75 10.1257 18.9146 9.83265 19.2077C9.53962 19.5007 9.375 19.8981 9.375 20.3125V89.0625C9.375 89.4769 9.53962 89.8744 9.83265 90.1674C10.1257 90.4604 10.5231 90.625 10.9375 90.625H61.5L67.7812 93.6094C67.5944 93.6946 67.3927 93.7423 67.1875 93.75ZM93.75 77.7813C93.7557 79.7584 93.2218 81.6996 92.2058 83.3957C91.1898 85.0918 89.7303 86.4784 87.9844 87.4063L75 93.5781L62.0469 87.4219C60.2953 86.494 58.8299 85.106 57.8084 83.4073C56.787 81.7086 56.2482 79.7634 56.25 77.7813V57.8125C61.9955 57.8013 67.5844 55.9384 72.1875 52.5L75 50.3906L77.8125 52.5C82.4156 55.9384 88.0045 57.8013 93.75 57.8125V77.7813Z" fill="black"/>
<path d="M46.875 32.8125H42.1875V28.125C42.1875 27.7106 42.0229 27.3132 41.7299 27.0201C41.4368 26.7271 41.0394 26.5625 40.625 26.5625H34.375C33.9606 26.5625 33.5632 26.7271 33.2701 27.0201C32.9771 27.3132 32.8125 27.7106 32.8125 28.125V32.8125H28.125C27.7106 32.8125 27.3132 32.9771 27.0201 33.2701C26.7271 33.5632 26.5625 33.9606 26.5625 34.375V40.625C26.5625 41.0394 26.7271 41.4368 27.0201 41.7299C27.3132 42.0229 27.7106 42.1875 28.125 42.1875H32.8125V46.875C32.8125 47.2894 32.9771 47.6868 33.2701 47.9799C33.5632 48.2729 33.9606 48.4375 34.375 48.4375H40.625C41.0394 48.4375 41.4368 48.2729 41.7299 47.9799C42.0229 47.6868 42.1875 47.2894 42.1875 46.875V42.1875H46.875C47.2894 42.1875 47.6868 42.0229 47.9799 41.7299C48.2729 41.4368 48.4375 41.0394 48.4375 40.625V34.375C48.4375 33.9606 48.2729 33.5632 47.9799 33.2701C47.6868 32.9771 47.2894 32.8125 46.875 32.8125ZM45.3125 39.0625H40.625C40.2106 39.0625 39.8132 39.2271 39.5201 39.5201C39.2271 39.8132 39.0625 40.2106 39.0625 40.625V45.3125H35.9375V40.625C35.9375 40.2106 35.7729 39.8132 35.4799 39.5201C35.1868 39.2271 34.7894 39.0625 34.375 39.0625H29.6875V35.9375H34.375C34.7894 35.9375 35.1868 35.7729 35.4799 35.4799C35.7729 35.1868 35.9375 34.7894 35.9375 34.375V29.6875H39.0625V34.375C39.0625 34.7894 39.2271 35.1868 39.5201 35.4799C39.8132 35.7729 40.2106 35.9375 40.625 35.9375H45.3125V39.0625ZM89.2969 60.5938C84.451 59.858 79.8619 57.9365 75.9375 55C75.6681 54.7947 75.3387 54.6835 75 54.6835C74.6613 54.6835 74.3319 54.7947 74.0625 55C70.1381 57.9365 65.549 59.858 60.7031 60.5938C60.3343 60.6523 59.9983 60.84 59.755 61.1233C59.5117 61.4066 59.3771 61.7672 59.375 62.1406V77.7812C59.3755 79.1758 59.7497 80.5447 60.4587 81.7455C61.1676 82.9464 62.1855 83.9353 63.4063 84.6094L63.5 84.6562L74.3281 89.7969C74.5372 89.8996 74.767 89.953 75 89.953C75.233 89.953 75.4628 89.8996 75.6719 89.7969L86.5937 84.6094C87.8132 83.9338 88.83 82.9445 89.5387 81.744C90.2475 80.5435 90.6225 79.1754 90.625 77.7812V62.1406C90.6229 61.7672 90.4883 61.4066 90.245 61.1233C90.0017 60.84 89.6657 60.6523 89.2969 60.5938ZM87.5 77.7812C87.5044 78.6032 87.2895 79.4115 86.8775 80.1229C86.4656 80.8342 85.8714 81.4228 85.1562 81.8281L75 86.6562L64.875 81.8594C64.1539 81.4504 63.5541 80.8574 63.1368 80.141C62.7196 79.4246 62.4999 78.6103 62.5 77.7812V63.4531C66.9877 62.5782 71.2444 60.7797 75 58.1719C78.7556 60.7797 83.0123 62.5782 87.5 63.4531V77.7812Z" fill="#FF7200"/>
<path d="M68.2922 73.8953L66.0828 76.1047L70.7703 80.7922C71.0633 81.0851 71.4607 81.2497 71.875 81.2497C72.2893 81.2497 72.6867 81.0851 72.9797 80.7922L85.4797 68.2922L83.2703 66.0828L71.875 77.4781L68.2922 73.8953Z" fill="black"/>
</svg>
