<svg width="100" height="100" viewBox="0 0 100 100" fill="none" xmlns="http://www.w3.org/2000/svg">
<g clip-path="url(#clip0_39_114)">
<path d="M99.2859 46.383C99.0469 46.136 98.7607 45.9395 98.4444 45.8051C98.1281 45.6706 97.788 45.601 97.4443 45.6002H43.1023L45.7869 18.547C45.8551 17.8623 45.6289 17.1771 45.167 16.6672C44.7051 16.1572 44.0455 15.8646 43.3574 15.8646H7.26094C6.57285 15.8646 5.91328 16.1572 5.45137 16.667C5.22272 16.9198 5.04945 17.2177 4.9427 17.5415C4.83594 17.8653 4.79804 18.2078 4.83145 18.547L9.89375 69.5644H4.09492C1.83691 69.5644 0 71.4013 0 73.6594C0 75.9174 1.83691 77.7543 4.09492 77.7543H7.39336C9.7623 82.9138 14.9127 86.2773 20.7008 86.2773H79.1781C80.5863 86.2773 81.732 85.1316 81.732 83.7234V75.8004C86.7926 73.4338 91.141 69.7717 94.3504 65.1627C97.8227 60.176 99.7756 54.3256 99.998 48.2437C100.023 47.5568 99.7637 46.8787 99.2859 46.383ZM9.02422 31.131H28.5156C29.3248 31.131 29.9805 30.4754 29.9805 29.6662C29.9805 28.857 29.3248 28.2013 28.5156 28.2013H8.73359L7.8002 18.7945H42.8184L41.885 28.2013H35.3516C34.5424 28.2013 33.8867 28.857 33.8867 29.6662C33.8867 30.4754 34.5424 31.131 35.3516 31.131H41.5941L40.1584 45.6004H39.1764C38.8326 45.6011 38.4925 45.6708 38.1762 45.8053C37.8599 45.9397 37.5737 46.1362 37.3346 46.3832C37.0975 46.6299 36.9124 46.9217 36.79 47.2412C36.6677 47.5608 36.6106 47.9016 36.6223 48.2435C36.657 49.1926 36.7398 50.1349 36.8586 51.0703C36.2795 50.8373 35.6612 50.7171 35.0369 50.7162C33.5346 50.7162 32.1359 51.4062 31.184 52.6131C30.6137 52.4015 30.0182 52.2904 29.4285 52.2904C27.6486 52.2904 26.0611 53.2265 25.182 54.7943C25.0846 54.968 24.9971 55.1471 24.9201 55.3308C24.7793 55.3194 24.638 55.3136 24.4967 55.3136C22.4611 55.3136 20.6699 56.5256 19.9336 58.4019C19.7767 58.8006 19.6705 59.2174 19.6174 59.6426C17.7109 60.0099 16.2186 61.3808 15.7596 63.2824C15.6082 63.9088 15.5836 64.5664 15.6813 65.2178C14.1562 65.9693 13.1385 67.3814 12.9648 69.1092C12.95 69.2605 12.9421 69.4125 12.9412 69.5646H12.8381L9.02422 31.131ZM4.09492 74.8244C3.45234 74.8244 2.92969 74.3015 2.92969 73.6592C2.92969 73.0168 3.45234 72.4939 4.09492 72.4939H43.1641C43.9732 72.4939 44.6289 71.8383 44.6289 71.0291C44.6289 70.2199 43.9732 69.5642 43.1641 69.5642H15.8723C15.873 69.5099 15.874 69.4556 15.8793 69.4015C15.9729 68.4715 16.6836 67.7836 17.7344 67.606C17.9584 67.5682 18.1706 67.4787 18.3541 67.3447C18.5376 67.2107 18.6874 67.0358 18.7917 66.8339C18.896 66.632 18.9519 66.4086 18.9549 66.1814C18.958 65.9542 18.9082 65.7294 18.8094 65.5248C18.5611 65.0099 18.4889 64.458 18.607 63.9699C18.8264 63.0613 19.6309 62.474 20.6568 62.474C20.7551 62.474 20.8559 62.4793 20.9561 62.4902C21.1827 62.5144 21.4118 62.4854 21.6252 62.4055C21.8386 62.3256 22.0304 62.197 22.1854 62.0299C22.3404 61.8628 22.4543 61.6619 22.518 61.4431C22.5817 61.2243 22.5934 60.9937 22.5523 60.7695C22.4676 60.3076 22.5041 59.8707 22.6605 59.4717C22.9535 58.7256 23.674 58.2433 24.4963 58.2433C24.8057 58.2433 25.1213 58.3072 25.4348 58.4332C25.6463 58.5182 25.8748 58.5527 26.102 58.5339C26.3292 58.515 26.5489 58.4434 26.7436 58.3246C26.9382 58.2059 27.1025 58.0435 27.2234 57.8501C27.3442 57.6568 27.4182 57.4379 27.4395 57.2109C27.4734 56.8496 27.5736 56.5187 27.7369 56.2273C28.0959 55.5873 28.7123 55.2201 29.4281 55.2201C29.9049 55.2201 30.4094 55.4043 30.8488 55.739C31.0295 55.8766 31.2397 55.9702 31.4628 56.0126C31.6859 56.055 31.9158 56.0449 32.1344 55.9832C32.3529 55.9215 32.5542 55.8099 32.7222 55.6571C32.8902 55.5044 33.0204 55.3146 33.1025 55.1029C33.1896 54.8748 33.3082 54.6601 33.4549 54.465C33.849 53.9443 34.4256 53.6459 35.0365 53.6459C35.6965 53.6459 36.3344 53.9896 36.7861 54.5888C36.9226 54.77 37.0993 54.9169 37.3023 55.0181C37.5053 55.1193 37.729 55.172 37.9558 55.172C38.1826 55.1719 38.4063 55.1192 38.6093 55.018C38.8122 54.9168 38.9889 54.7698 39.1254 54.5886C39.5771 53.9896 40.2146 53.6459 40.8746 53.6459C41.4854 53.6459 42.0617 53.9445 42.4563 54.465C42.5988 54.6535 42.7176 54.8683 42.809 55.1037C42.8911 55.3154 43.0214 55.5051 43.1894 55.6578C43.3575 55.8106 43.5587 55.9222 43.7773 55.9838C43.9959 56.0454 44.2257 56.0554 44.4488 56.0129C44.6719 55.9704 44.8821 55.8767 45.0627 55.739C45.5018 55.4043 46.0061 55.2201 46.483 55.2201C47.1986 55.2201 47.815 55.5873 48.1738 56.2269C48.3375 56.5189 48.4377 56.8502 48.4717 57.2113C48.4931 57.4383 48.5671 57.6571 48.688 57.8504C48.8088 58.0437 48.9731 58.2061 49.1678 58.3247C49.3624 58.4433 49.5821 58.5149 49.8093 58.5337C50.0364 58.5525 50.2649 58.518 50.4764 58.433C50.7895 58.3072 51.1051 58.2433 51.4146 58.2433C52.2369 58.2433 52.9572 58.7256 53.25 59.4717C53.4066 59.8709 53.443 60.3076 53.3586 60.7697C53.3175 60.9939 53.3293 61.2245 53.3931 61.4433C53.4568 61.6621 53.5707 61.863 53.7258 62.0301C53.8806 62.1973 54.0724 62.3261 54.2859 62.406C54.4994 62.4858 54.7287 62.5146 54.9553 62.49C55.0545 62.4794 55.1543 62.474 55.2541 62.474C56.2799 62.474 57.0844 63.0613 57.3037 63.9699C57.4217 64.4578 57.3496 65.0101 57.1012 65.525C57.0025 65.7296 56.9528 65.9544 56.9559 66.1816C56.959 66.4088 57.015 66.6321 57.1192 66.8339C57.2235 67.0358 57.3733 67.2106 57.5568 67.3446C57.7402 67.4786 57.9524 67.5681 58.1764 67.606C59.227 67.7836 59.9377 68.4717 60.0311 69.4013C60.0365 69.4554 60.0375 69.5099 60.0383 69.5642H50C49.1908 69.5642 48.5352 70.2199 48.5352 71.0291C48.5352 71.8383 49.1908 72.4939 50 72.4939H71.8168C72.4594 72.4939 72.982 73.0168 72.982 73.6592C72.982 74.3015 72.4594 74.8244 71.8168 74.8244H4.09492ZM55.2109 83.3474H20.7008C16.5457 83.3474 12.8012 81.181 10.7061 77.7541H65.2055C63.1103 81.181 59.366 83.3474 55.2109 83.3474ZM91.9465 63.4881C88.8637 67.9152 84.6248 71.3795 79.6877 73.507C79.4249 73.6202 79.2009 73.808 79.0436 74.0471C78.8863 74.2862 78.8025 74.5661 78.8025 74.8523V83.3474H64.0106C65.9553 81.8872 67.5047 79.9647 68.5184 77.7541H71.817C74.075 77.7541 75.9119 75.9172 75.9119 73.6592C75.9119 71.4011 74.075 69.5642 71.817 69.5642H62.9703C62.9695 69.4119 62.9616 69.2598 62.9467 69.1082C62.773 67.3808 61.7555 65.9687 60.2307 65.2172C60.3281 64.5662 60.3035 63.9086 60.1523 63.2822C60.0173 62.7188 59.7827 62.1841 59.4596 61.7033H93.0922C92.7323 62.3121 92.3501 62.9074 91.9465 63.4881ZM94.6033 58.7738H56.1061C56.0676 58.6488 56.026 58.5246 55.9777 58.4017C55.2418 56.526 53.4508 55.3136 51.4152 55.3136C51.2738 55.3136 51.1326 55.3193 50.9916 55.3308C50.9686 55.276 50.9428 55.2222 50.9178 55.1681H95.9293C95.5687 56.3984 95.1257 57.603 94.6033 58.7738ZM96.6223 52.2385H44.4C43.4684 51.2652 42.2133 50.7162 40.875 50.7162C40.5072 50.7169 40.1406 50.7591 39.7822 50.842C39.679 50.0746 39.6072 49.3033 39.567 48.5301H97.0537C96.9901 49.7742 96.846 51.0129 96.6223 52.2385Z" fill="black" stroke="black"/>
<path d="M36.3121 59.8969H34.1203C33.3111 59.8969 32.6555 60.5525 32.6555 61.3617C32.6555 62.1709 33.3111 62.8265 34.1203 62.8265H36.3121C37.1213 62.8265 37.777 62.1709 37.777 61.3617C37.777 60.5525 37.1213 59.8969 36.3121 59.8969ZM46.832 62.9652H44.6402C43.8311 62.9652 43.1754 63.6209 43.1754 64.4301C43.1754 65.2392 43.8311 65.8949 44.6402 65.8949H46.832C47.6412 65.8949 48.2969 65.2392 48.2969 64.4301C48.2969 63.6209 47.6412 62.9652 46.832 62.9652ZM26.8879 64.0611H24.6963C23.8871 64.0611 23.2314 64.7168 23.2314 65.526C23.2314 66.3351 23.8871 66.9908 24.6963 66.9908H26.8879C27.6971 66.9908 28.3527 66.3351 28.3527 65.526C28.3527 64.7168 27.6971 64.0611 26.8879 64.0611ZM57.0023 42.2939C57.8115 42.2939 58.4672 41.6383 58.4672 40.8291V38.1451C58.4672 37.1441 59.2816 36.3297 60.2826 36.3297H74.1992C76.8156 36.3297 78.9443 34.2011 78.9443 31.5845C78.9443 28.9679 76.8158 26.8394 74.1992 26.8394H62.2709C61.2697 26.8394 60.4553 26.025 60.4553 25.0238C60.4553 24.0228 61.2697 23.2084 62.2709 23.2084H73.2422C74.0514 23.2084 74.707 22.5527 74.707 21.7435C74.707 20.9344 74.0514 20.2787 73.2422 20.2787H62.2707C59.6543 20.2787 57.5254 22.4072 57.5254 25.0238C57.5254 27.6404 59.6541 29.7691 62.2707 29.7691H74.199C75.2 29.7691 76.0145 30.5836 76.0145 31.5845C76.0145 32.5855 75.2 33.4 74.199 33.4H60.2824C57.666 33.4 55.5373 35.5285 55.5373 38.1451V40.8291C55.5374 41.2176 55.6917 41.5902 55.9665 41.8649C56.2412 42.1396 56.6138 42.2939 57.0023 42.2939ZM80.0936 23.1877H89.8963C92.5057 23.1877 94.6287 21.0646 94.6287 18.4552C94.6287 15.8459 92.5057 13.723 89.8963 13.723H83.3611C82.5519 13.723 81.8963 14.3787 81.8963 15.1879C81.8963 15.997 82.5519 16.6527 83.3611 16.6527H89.8963C90.8904 16.6527 91.699 17.4615 91.699 18.4552C91.699 19.4494 90.8902 20.258 89.8963 20.258H80.0936C79.2844 20.258 78.6287 20.9136 78.6287 21.7228C78.6287 22.532 79.2846 23.1877 80.0936 23.1877Z" fill="#FF7200" stroke="#FF7200"/>
</g>
<defs>
<clipPath id="clip0_39_114">
<rect width="100" height="100" fill="white"/>
</clipPath>
</defs>
</svg>
